#tb 0: 1/1000
0,          0,          0,        0,    63024, e5164f87feadf4b65257f578affc3e04
0,         33,         33,        0,    63024, 6aee5a3b6c3a096dfc1594762b2b248f
0,         66,         66,        0,    63024, cb1c9dce6fdf7372e0eb2397251f0ade
0,        100,        100,        0,    63024, 4fe5f24c08690c966b6a14ac3422510b
0,        133,        133,        0,    63024, b22a273814523251b365f3278d8a3a9c
0,        166,        166,        0,    63024, 190d9dff373023a25427fc859545ea24
0,        200,        200,        0,    63024, a6307f38718ed686cb195e3833ab27ab
0,        233,        233,        0,    63024, 79630bec5a91d69aca42a910413c2800
0,        266,        266,        0,    63024, 2231cec9c03714b8671e5e1456b148c9
0,        300,        300,        0,    63024, 278458f6734a24f2eb9bc877a6e9d7df
